<?xml version="1.0" encoding="UTF-8"?>
<svg xmlns="http://www.w3.org/2000/svg" xmlns:xlink="http://www.w3.org/1999/xlink" width="432pt" height="266pt" viewBox="0 0 432 266">
<defs>
<g>
<g id="glyph-0-0">
<path d="M 0.328125 0 L 0.328125 -7.171875 L 6.015625 -7.171875 L 6.015625 0 Z M 5.125 -0.90625 L 5.125 -6.28125 L 1.21875 -6.28125 L 1.21875 -0.90625 Z M 5.125 -0.90625 "/>
</g>
<g id="glyph-0-1">
<path d="M 0.421875 -3.234375 L 2.859375 -3.234375 L 2.859375 -2.328125 L 0.421875 -2.328125 Z M 0.421875 -3.234375 "/>
</g>
<g id="glyph-0-2">
<path d="M 0.953125 -4.953125 L 0.953125 -5.625 C 1.585938 -5.6875 2.03125 -5.789062 2.28125 -5.9375 C 2.53125 -6.082031 2.71875 -6.425781 2.84375 -6.96875 L 3.546875 -6.96875 L 3.546875 0 L 2.609375 0 L 2.609375 -4.953125 Z M 0.953125 -4.953125 "/>
</g>
<g id="glyph-0-3">
</g>
<g id="glyph-0-4">
<path d="M 2.859375 -0.59375 C 3.265625 -0.59375 3.601562 -0.765625 3.875 -1.109375 C 4.144531 -1.453125 4.28125 -1.960938 4.28125 -2.640625 C 4.28125 -3.054688 4.222656 -3.414062 4.109375 -3.71875 C 3.878906 -4.289062 3.460938 -4.578125 2.859375 -4.578125 C 2.242188 -4.578125 1.828125 -4.273438 1.609375 -3.671875 C 1.484375 -3.347656 1.421875 -2.9375 1.421875 -2.4375 C 1.421875 -2.03125 1.484375 -1.6875 1.609375 -1.40625 C 1.828125 -0.863281 2.242188 -0.59375 2.859375 -0.59375 Z M 0.578125 -5.203125 L 1.4375 -5.203125 L 1.4375 -4.515625 C 1.601562 -4.753906 1.789062 -4.9375 2 -5.0625 C 2.300781 -5.257812 2.648438 -5.359375 3.046875 -5.359375 C 3.640625 -5.359375 4.144531 -5.128906 4.5625 -4.671875 C 4.976562 -4.222656 5.1875 -3.578125 5.1875 -2.734375 C 5.1875 -1.585938 4.882812 -0.769531 4.28125 -0.28125 C 3.90625 0.0195312 3.46875 0.171875 2.96875 0.171875 C 2.570312 0.171875 2.242188 0.0859375 1.984375 -0.078125 C 1.828125 -0.179688 1.648438 -0.351562 1.453125 -0.59375 L 1.453125 2.078125 L 0.578125 2.078125 Z M 0.578125 -5.203125 "/>
</g>
<g id="glyph-0-5">
<path d="M 2.703125 -7 C 3.609375 -7 4.265625 -6.625 4.671875 -5.875 C 4.984375 -5.300781 5.140625 -4.507812 5.140625 -3.5 C 5.140625 -2.550781 5 -1.765625 4.71875 -1.140625 C 4.300781 -0.253906 3.628906 0.1875 2.703125 0.1875 C 1.859375 0.1875 1.234375 -0.175781 0.828125 -0.90625 C 0.484375 -1.507812 0.3125 -2.328125 0.3125 -3.359375 C 0.3125 -4.148438 0.414062 -4.832031 0.625 -5.40625 C 1.007812 -6.46875 1.703125 -7 2.703125 -7 Z M 2.703125 -0.609375 C 3.148438 -0.609375 3.507812 -0.8125 3.78125 -1.21875 C 4.050781 -1.625 4.1875 -2.375 4.1875 -3.46875 C 4.1875 -4.257812 4.085938 -4.910156 3.890625 -5.421875 C 3.703125 -5.941406 3.328125 -6.203125 2.765625 -6.203125 C 2.242188 -6.203125 1.863281 -5.957031 1.625 -5.46875 C 1.382812 -4.976562 1.265625 -4.265625 1.265625 -3.328125 C 1.265625 -2.609375 1.34375 -2.035156 1.5 -1.609375 C 1.726562 -0.941406 2.128906 -0.609375 2.703125 -0.609375 Z M 2.703125 -0.609375 "/>
</g>
<g id="glyph-0-6">
<path d="M 0.859375 -1.0625 L 1.875 -1.0625 L 1.875 0 L 0.859375 0 Z M 0.859375 -1.0625 "/>
</g>
<g id="glyph-0-7">
<path d="M 1.234375 -1.78125 C 1.296875 -1.28125 1.53125 -0.9375 1.9375 -0.75 C 2.144531 -0.644531 2.382812 -0.59375 2.65625 -0.59375 C 3.175781 -0.59375 3.5625 -0.757812 3.8125 -1.09375 C 4.0625 -1.425781 4.1875 -1.796875 4.1875 -2.203125 C 4.1875 -2.691406 4.035156 -3.066406 3.734375 -3.328125 C 3.441406 -3.597656 3.085938 -3.734375 2.671875 -3.734375 C 2.367188 -3.734375 2.109375 -3.671875 1.890625 -3.546875 C 1.671875 -3.429688 1.488281 -3.269531 1.34375 -3.0625 L 0.578125 -3.109375 L 1.109375 -6.875 L 4.734375 -6.875 L 4.734375 -6.03125 L 1.765625 -6.03125 L 1.46875 -4.078125 C 1.632812 -4.203125 1.789062 -4.296875 1.9375 -4.359375 C 2.195312 -4.460938 2.5 -4.515625 2.84375 -4.515625 C 3.476562 -4.515625 4.019531 -4.304688 4.46875 -3.890625 C 4.914062 -3.484375 5.140625 -2.960938 5.140625 -2.328125 C 5.140625 -1.671875 4.929688 -1.085938 4.515625 -0.578125 C 4.109375 -0.078125 3.457031 0.171875 2.5625 0.171875 C 2 0.171875 1.5 0.0117188 1.0625 -0.296875 C 0.625 -0.617188 0.378906 -1.113281 0.328125 -1.78125 Z M 1.234375 -1.78125 "/>
</g>
<g id="glyph-0-8">
<path d="M 0.3125 0 C 0.34375 -0.601562 0.46875 -1.125 0.6875 -1.5625 C 0.90625 -2.007812 1.328125 -2.414062 1.953125 -2.78125 L 2.890625 -3.328125 C 3.304688 -3.578125 3.601562 -3.785156 3.78125 -3.953125 C 4.039062 -4.222656 4.171875 -4.535156 4.171875 -4.890625 C 4.171875 -5.296875 4.046875 -5.617188 3.796875 -5.859375 C 3.554688 -6.097656 3.234375 -6.21875 2.828125 -6.21875 C 2.222656 -6.21875 1.804688 -5.988281 1.578125 -5.53125 C 1.453125 -5.28125 1.382812 -4.941406 1.375 -4.515625 L 0.484375 -4.515625 C 0.492188 -5.117188 0.609375 -5.613281 0.828125 -6 C 1.203125 -6.675781 1.875 -7.015625 2.84375 -7.015625 C 3.632812 -7.015625 4.210938 -6.796875 4.578125 -6.359375 C 4.953125 -5.929688 5.140625 -5.453125 5.140625 -4.921875 C 5.140625 -4.359375 4.945312 -3.878906 4.5625 -3.484375 C 4.332031 -3.253906 3.921875 -2.972656 3.328125 -2.640625 L 2.65625 -2.28125 C 2.34375 -2.101562 2.09375 -1.929688 1.90625 -1.765625 C 1.582031 -1.484375 1.378906 -1.171875 1.296875 -0.828125 L 5.109375 -0.828125 L 5.109375 0 Z M 0.3125 0 "/>
</g>
<g id="glyph-0-9">
<path d="M 1.3125 -1.390625 C 1.3125 -1.140625 1.40625 -0.941406 1.59375 -0.796875 C 1.78125 -0.648438 2 -0.578125 2.25 -0.578125 C 2.5625 -0.578125 2.863281 -0.644531 3.15625 -0.78125 C 3.644531 -1.019531 3.890625 -1.410156 3.890625 -1.953125 L 3.890625 -2.65625 C 3.773438 -2.59375 3.632812 -2.535156 3.46875 -2.484375 C 3.300781 -2.441406 3.132812 -2.410156 2.96875 -2.390625 L 2.4375 -2.328125 C 2.125 -2.285156 1.882812 -2.21875 1.71875 -2.125 C 1.445312 -1.96875 1.3125 -1.722656 1.3125 -1.390625 Z M 3.453125 -3.171875 C 3.648438 -3.191406 3.785156 -3.273438 3.859375 -3.421875 C 3.890625 -3.503906 3.90625 -3.617188 3.90625 -3.765625 C 3.90625 -4.054688 3.796875 -4.269531 3.578125 -4.40625 C 3.367188 -4.539062 3.066406 -4.609375 2.671875 -4.609375 C 2.210938 -4.609375 1.890625 -4.488281 1.703125 -4.25 C 1.585938 -4.101562 1.515625 -3.898438 1.484375 -3.640625 L 0.671875 -3.640625 C 0.679688 -4.273438 0.890625 -4.71875 1.296875 -4.96875 C 1.703125 -5.226562 2.171875 -5.359375 2.703125 -5.359375 C 3.316406 -5.359375 3.8125 -5.238281 4.1875 -5 C 4.570312 -4.769531 4.765625 -4.40625 4.765625 -3.90625 L 4.765625 -0.90625 C 4.765625 -0.8125 4.78125 -0.734375 4.8125 -0.671875 C 4.851562 -0.617188 4.9375 -0.59375 5.0625 -0.59375 C 5.101562 -0.59375 5.144531 -0.59375 5.1875 -0.59375 C 5.238281 -0.601562 5.289062 -0.613281 5.34375 -0.625 L 5.34375 0.03125 C 5.207031 0.0625 5.101562 0.0820312 5.03125 0.09375 C 4.957031 0.101562 4.859375 0.109375 4.734375 0.109375 C 4.429688 0.109375 4.210938 0.00390625 4.078125 -0.203125 C 4.003906 -0.316406 3.957031 -0.476562 3.9375 -0.6875 C 3.75 -0.457031 3.488281 -0.253906 3.15625 -0.078125 C 2.820312 0.0859375 2.453125 0.171875 2.046875 0.171875 C 1.566406 0.171875 1.171875 0.0234375 0.859375 -0.265625 C 0.554688 -0.554688 0.40625 -0.925781 0.40625 -1.375 C 0.40625 -1.851562 0.554688 -2.226562 0.859375 -2.5 C 1.160156 -2.769531 1.554688 -2.9375 2.046875 -3 Z M 2.71875 -5.359375 Z M 2.71875 -5.359375 "/>
</g>
<g id="glyph-0-10">
<path d="M 0.640625 -5.234375 L 1.515625 -5.234375 L 1.515625 -4.484375 C 1.722656 -4.742188 1.910156 -4.929688 2.078125 -5.046875 C 2.367188 -5.242188 2.695312 -5.34375 3.0625 -5.34375 C 3.476562 -5.34375 3.816406 -5.242188 4.078125 -5.046875 C 4.210938 -4.921875 4.34375 -4.742188 4.46875 -4.515625 C 4.65625 -4.796875 4.878906 -5.003906 5.140625 -5.140625 C 5.410156 -5.273438 5.710938 -5.34375 6.046875 -5.34375 C 6.742188 -5.34375 7.21875 -5.085938 7.46875 -4.578125 C 7.613281 -4.304688 7.6875 -3.941406 7.6875 -3.484375 L 7.6875 0 L 6.765625 0 L 6.765625 -3.640625 C 6.765625 -3.984375 6.675781 -4.21875 6.5 -4.34375 C 6.332031 -4.476562 6.125 -4.546875 5.875 -4.546875 C 5.53125 -4.546875 5.234375 -4.429688 4.984375 -4.203125 C 4.734375 -3.972656 4.609375 -3.585938 4.609375 -3.046875 L 4.609375 0 L 3.71875 0 L 3.71875 -3.40625 C 3.71875 -3.769531 3.671875 -4.03125 3.578125 -4.1875 C 3.453125 -4.4375 3.207031 -4.5625 2.84375 -4.5625 C 2.507812 -4.5625 2.207031 -4.429688 1.9375 -4.171875 C 1.664062 -3.910156 1.53125 -3.445312 1.53125 -2.78125 L 1.53125 0 L 0.640625 0 Z M 0.640625 -5.234375 "/>
</g>
<g id="glyph-0-11">
<path d="M 2.59375 0.1875 C 1.769531 0.1875 1.171875 -0.0351562 0.796875 -0.484375 C 0.421875 -0.941406 0.234375 -1.5 0.234375 -2.15625 L 1.15625 -2.15625 C 1.195312 -1.695312 1.28125 -1.363281 1.40625 -1.15625 C 1.632812 -0.789062 2.046875 -0.609375 2.640625 -0.609375 C 3.109375 -0.609375 3.484375 -0.734375 3.765625 -0.984375 C 4.046875 -1.234375 4.1875 -1.550781 4.1875 -1.9375 C 4.1875 -2.414062 4.035156 -2.75 3.734375 -2.9375 C 3.441406 -3.132812 3.035156 -3.234375 2.515625 -3.234375 C 2.453125 -3.234375 2.390625 -3.234375 2.328125 -3.234375 C 2.265625 -3.234375 2.207031 -3.234375 2.15625 -3.234375 L 2.15625 -4 C 2.238281 -3.988281 2.3125 -3.984375 2.375 -3.984375 C 2.4375 -3.984375 2.503906 -3.984375 2.578125 -3.984375 C 2.910156 -3.984375 3.179688 -4.035156 3.390625 -4.140625 C 3.765625 -4.316406 3.953125 -4.640625 3.953125 -5.109375 C 3.953125 -5.460938 3.828125 -5.734375 3.578125 -5.921875 C 3.328125 -6.109375 3.035156 -6.203125 2.703125 -6.203125 C 2.117188 -6.203125 1.71875 -6.003906 1.5 -5.609375 C 1.375 -5.398438 1.300781 -5.097656 1.28125 -4.703125 L 0.421875 -4.703125 C 0.421875 -5.222656 0.523438 -5.664062 0.734375 -6.03125 C 1.085938 -6.675781 1.71875 -7 2.625 -7 C 3.332031 -7 3.878906 -6.835938 4.265625 -6.515625 C 4.660156 -6.203125 4.859375 -5.742188 4.859375 -5.140625 C 4.859375 -4.710938 4.742188 -4.367188 4.515625 -4.109375 C 4.367188 -3.941406 4.179688 -3.8125 3.953125 -3.71875 C 4.316406 -3.613281 4.601562 -3.414062 4.8125 -3.125 C 5.019531 -2.84375 5.125 -2.492188 5.125 -2.078125 C 5.125 -1.398438 4.90625 -0.851562 4.46875 -0.4375 C 4.03125 -0.0195312 3.40625 0.1875 2.59375 0.1875 Z M 2.59375 0.1875 "/>
</g>
<g id="glyph-0-12">
<path d="M 2.921875 -7.015625 C 3.703125 -7.015625 4.242188 -6.8125 4.546875 -6.40625 C 4.859375 -6.007812 5.015625 -5.59375 5.015625 -5.15625 L 4.15625 -5.15625 C 4.101562 -5.4375 4.019531 -5.65625 3.90625 -5.8125 C 3.6875 -6.101562 3.363281 -6.25 2.9375 -6.25 C 2.445312 -6.25 2.054688 -6.019531 1.765625 -5.5625 C 1.472656 -5.113281 1.3125 -4.46875 1.28125 -3.625 C 1.488281 -3.914062 1.742188 -4.132812 2.046875 -4.28125 C 2.328125 -4.414062 2.640625 -4.484375 2.984375 -4.484375 C 3.566406 -4.484375 4.078125 -4.296875 4.515625 -3.921875 C 4.953125 -3.546875 5.171875 -2.984375 5.171875 -2.234375 C 5.171875 -1.609375 4.960938 -1.046875 4.546875 -0.546875 C 4.140625 -0.0546875 3.550781 0.1875 2.78125 0.1875 C 2.125 0.1875 1.554688 -0.0625 1.078125 -0.5625 C 0.609375 -1.0625 0.375 -1.898438 0.375 -3.078125 C 0.375 -3.941406 0.476562 -4.675781 0.6875 -5.28125 C 1.09375 -6.4375 1.835938 -7.015625 2.921875 -7.015625 Z M 2.859375 -0.59375 C 3.328125 -0.59375 3.675781 -0.75 3.90625 -1.0625 C 4.132812 -1.375 4.25 -1.742188 4.25 -2.171875 C 4.25 -2.523438 4.144531 -2.863281 3.9375 -3.1875 C 3.726562 -3.507812 3.351562 -3.671875 2.8125 -3.671875 C 2.4375 -3.671875 2.101562 -3.546875 1.8125 -3.296875 C 1.53125 -3.046875 1.390625 -2.671875 1.390625 -2.171875 C 1.390625 -1.722656 1.519531 -1.347656 1.78125 -1.046875 C 2.039062 -0.742188 2.398438 -0.59375 2.859375 -0.59375 Z M 2.859375 -0.59375 "/>
</g>
<g id="glyph-0-13">
<path d="M 1.328125 -1.6875 C 1.359375 -1.207031 1.546875 -0.875 1.890625 -0.6875 C 2.066406 -0.582031 2.269531 -0.53125 2.5 -0.53125 C 2.914062 -0.53125 3.269531 -0.707031 3.5625 -1.0625 C 3.863281 -1.414062 4.078125 -2.125 4.203125 -3.1875 C 4.003906 -2.882812 3.757812 -2.671875 3.46875 -2.546875 C 3.1875 -2.421875 2.878906 -2.359375 2.546875 -2.359375 C 1.867188 -2.359375 1.332031 -2.566406 0.9375 -2.984375 C 0.550781 -3.398438 0.359375 -3.941406 0.359375 -4.609375 C 0.359375 -5.242188 0.550781 -5.800781 0.9375 -6.28125 C 1.320312 -6.757812 1.894531 -7 2.65625 -7 C 3.675781 -7 4.378906 -6.539062 4.765625 -5.625 C 4.972656 -5.125 5.078125 -4.492188 5.078125 -3.734375 C 5.078125 -2.878906 4.953125 -2.117188 4.703125 -1.453125 C 4.273438 -0.347656 3.550781 0.203125 2.53125 0.203125 C 1.84375 0.203125 1.320312 0.0234375 0.96875 -0.328125 C 0.613281 -0.691406 0.4375 -1.144531 0.4375 -1.6875 Z M 2.65625 -3.125 C 3.007812 -3.125 3.328125 -3.238281 3.609375 -3.46875 C 3.898438 -3.695312 4.046875 -4.097656 4.046875 -4.671875 C 4.046875 -5.179688 3.914062 -5.5625 3.65625 -5.8125 C 3.394531 -6.070312 3.066406 -6.203125 2.671875 -6.203125 C 2.242188 -6.203125 1.898438 -6.054688 1.640625 -5.765625 C 1.390625 -5.484375 1.265625 -5.097656 1.265625 -4.609375 C 1.265625 -4.160156 1.375 -3.800781 1.59375 -3.53125 C 1.820312 -3.257812 2.175781 -3.125 2.65625 -3.125 Z M 2.65625 -3.125 "/>
</g>
<g id="glyph-1-0">
<path d="M 0.359375 0 L 0.359375 -7.890625 L 6.625 -7.890625 L 6.625 0 Z M 5.625 -0.984375 L 5.625 -6.90625 L 1.34375 -6.90625 L 1.34375 -0.984375 Z M 5.625 -0.984375 "/>
</g>
<g id="glyph-1-1">
<path d="M 0.859375 -7.890625 L 1.9375 -7.890625 L 1.9375 -4.625 L 6.046875 -4.625 L 6.046875 -7.890625 L 7.125 -7.890625 L 7.125 0 L 6.046875 0 L 6.046875 -3.6875 L 1.9375 -3.6875 L 1.9375 0 L 0.859375 0 Z M 0.859375 -7.890625 "/>
</g>
<g id="glyph-1-2">
<path d="M 2.984375 -0.625 C 3.628906 -0.625 4.070312 -0.863281 4.3125 -1.34375 C 4.550781 -1.832031 4.671875 -2.375 4.671875 -2.96875 C 4.671875 -3.507812 4.582031 -3.945312 4.40625 -4.28125 C 4.132812 -4.8125 3.664062 -5.078125 3 -5.078125 C 2.40625 -5.078125 1.972656 -4.847656 1.703125 -4.390625 C 1.441406 -3.941406 1.3125 -3.398438 1.3125 -2.765625 C 1.3125 -2.148438 1.441406 -1.640625 1.703125 -1.234375 C 1.972656 -0.828125 2.398438 -0.625 2.984375 -0.625 Z M 3.03125 -5.921875 C 3.769531 -5.921875 4.394531 -5.671875 4.90625 -5.171875 C 5.414062 -4.679688 5.671875 -3.957031 5.671875 -3 C 5.671875 -2.070312 5.445312 -1.304688 5 -0.703125 C 4.550781 -0.0976562 3.851562 0.203125 2.90625 0.203125 C 2.113281 0.203125 1.484375 -0.0625 1.015625 -0.59375 C 0.546875 -1.125 0.3125 -1.84375 0.3125 -2.75 C 0.3125 -3.71875 0.554688 -4.488281 1.046875 -5.0625 C 1.535156 -5.632812 2.195312 -5.921875 3.03125 -5.921875 Z M 3 -5.890625 Z M 3 -5.890625 "/>
</g>
<g id="glyph-1-3">
<path d="M 1.671875 -5.75 L 1.671875 -1.9375 C 1.671875 -1.644531 1.71875 -1.40625 1.8125 -1.21875 C 1.988281 -0.875 2.3125 -0.703125 2.78125 -0.703125 C 3.445312 -0.703125 3.90625 -1 4.15625 -1.59375 C 4.28125 -1.914062 4.34375 -2.359375 4.34375 -2.921875 L 4.34375 -5.75 L 5.3125 -5.75 L 5.3125 0 L 4.40625 0 L 4.421875 -0.84375 C 4.296875 -0.625 4.140625 -0.441406 3.953125 -0.296875 C 3.578125 0.00390625 3.128906 0.15625 2.609375 0.15625 C 1.785156 0.15625 1.222656 -0.117188 0.921875 -0.671875 C 0.765625 -0.960938 0.6875 -1.351562 0.6875 -1.84375 L 0.6875 -5.75 Z M 3 -5.890625 Z M 3 -5.890625 "/>
</g>
<g id="glyph-1-4">
<path d="M 0.734375 -5.75 L 1.65625 -5.75 L 1.65625 -4.765625 C 1.726562 -4.953125 1.910156 -5.179688 2.203125 -5.453125 C 2.492188 -5.734375 2.832031 -5.875 3.21875 -5.875 C 3.238281 -5.875 3.269531 -5.875 3.3125 -5.875 C 3.351562 -5.875 3.425781 -5.867188 3.53125 -5.859375 L 3.53125 -4.828125 C 3.476562 -4.835938 3.425781 -4.84375 3.375 -4.84375 C 3.320312 -4.851562 3.269531 -4.859375 3.21875 -4.859375 C 2.726562 -4.859375 2.351562 -4.703125 2.09375 -4.390625 C 1.832031 -4.078125 1.703125 -3.71875 1.703125 -3.3125 L 1.703125 0 L 0.734375 0 Z M 0.734375 -5.75 "/>
</g>
<g id="glyph-1-5">
</g>
<g id="glyph-1-6">
<path d="M 0.953125 -6.625 C 0.960938 -7.03125 1.03125 -7.328125 1.15625 -7.515625 C 1.382812 -7.835938 1.820312 -8 2.46875 -8 C 2.53125 -8 2.59375 -8 2.65625 -8 C 2.71875 -8 2.789062 -7.992188 2.875 -7.984375 L 2.875 -7.09375 C 2.769531 -7.101562 2.695312 -7.109375 2.65625 -7.109375 C 2.613281 -7.109375 2.570312 -7.109375 2.53125 -7.109375 C 2.238281 -7.109375 2.0625 -7.03125 2 -6.875 C 1.945312 -6.726562 1.921875 -6.34375 1.921875 -5.71875 L 2.875 -5.71875 L 2.875 -4.96875 L 1.90625 -4.96875 L 1.90625 0 L 0.953125 0 L 0.953125 -4.96875 L 0.15625 -4.96875 L 0.15625 -5.71875 L 0.953125 -5.71875 Z M 0.953125 -6.625 "/>
</g>
<g id="glyph-1-7">
<path d="M 1.328125 -2.8125 C 1.328125 -2.195312 1.457031 -1.679688 1.71875 -1.265625 C 1.976562 -0.847656 2.394531 -0.640625 2.96875 -0.640625 C 3.414062 -0.640625 3.78125 -0.832031 4.0625 -1.21875 C 4.351562 -1.601562 4.5 -2.15625 4.5 -2.875 C 4.5 -3.601562 4.347656 -4.140625 4.046875 -4.484375 C 3.753906 -4.835938 3.390625 -5.015625 2.953125 -5.015625 C 2.472656 -5.015625 2.082031 -4.828125 1.78125 -4.453125 C 1.476562 -4.078125 1.328125 -3.53125 1.328125 -2.8125 Z M 2.78125 -5.859375 C 3.21875 -5.859375 3.585938 -5.765625 3.890625 -5.578125 C 4.054688 -5.472656 4.25 -5.285156 4.46875 -5.015625 L 4.46875 -7.921875 L 5.390625 -7.921875 L 5.390625 0 L 4.53125 0 L 4.53125 -0.796875 C 4.300781 -0.441406 4.03125 -0.1875 3.71875 -0.03125 C 3.414062 0.121094 3.066406 0.203125 2.671875 0.203125 C 2.023438 0.203125 1.46875 -0.0625 1 -0.59375 C 0.53125 -1.132812 0.296875 -1.851562 0.296875 -2.75 C 0.296875 -3.59375 0.507812 -4.320312 0.9375 -4.9375 C 1.363281 -5.550781 1.976562 -5.859375 2.78125 -5.859375 Z M 2.78125 -5.859375 "/>
</g>
<g id="glyph-1-8">
<path d="M 1.453125 -1.53125 C 1.453125 -1.25 1.550781 -1.023438 1.75 -0.859375 C 1.957031 -0.703125 2.203125 -0.625 2.484375 -0.625 C 2.816406 -0.625 3.144531 -0.703125 3.46875 -0.859375 C 4.007812 -1.117188 4.28125 -1.550781 4.28125 -2.15625 L 4.28125 -2.921875 C 4.15625 -2.847656 4 -2.785156 3.8125 -2.734375 C 3.632812 -2.691406 3.453125 -2.65625 3.265625 -2.625 L 2.6875 -2.5625 C 2.332031 -2.507812 2.066406 -2.4375 1.890625 -2.34375 C 1.597656 -2.164062 1.453125 -1.894531 1.453125 -1.53125 Z M 3.796875 -3.484375 C 4.015625 -3.515625 4.160156 -3.609375 4.234375 -3.765625 C 4.273438 -3.847656 4.296875 -3.972656 4.296875 -4.140625 C 4.296875 -4.460938 4.175781 -4.695312 3.9375 -4.84375 C 3.707031 -5 3.375 -5.078125 2.9375 -5.078125 C 2.4375 -5.078125 2.082031 -4.941406 1.875 -4.671875 C 1.75 -4.515625 1.671875 -4.289062 1.640625 -4 L 0.734375 -4 C 0.753906 -4.707031 0.984375 -5.195312 1.421875 -5.46875 C 1.867188 -5.75 2.382812 -5.890625 2.96875 -5.890625 C 3.644531 -5.890625 4.191406 -5.757812 4.609375 -5.5 C 5.035156 -5.25 5.25 -4.847656 5.25 -4.296875 L 5.25 -0.984375 C 5.25 -0.890625 5.265625 -0.8125 5.296875 -0.75 C 5.335938 -0.6875 5.425781 -0.65625 5.5625 -0.65625 C 5.601562 -0.65625 5.648438 -0.65625 5.703125 -0.65625 C 5.765625 -0.664062 5.820312 -0.675781 5.875 -0.6875 L 5.875 0.03125 C 5.726562 0.0703125 5.613281 0.0976562 5.53125 0.109375 C 5.457031 0.117188 5.351562 0.125 5.21875 0.125 C 4.882812 0.125 4.640625 0.00390625 4.484375 -0.234375 C 4.410156 -0.359375 4.359375 -0.535156 4.328125 -0.765625 C 4.128906 -0.503906 3.84375 -0.28125 3.46875 -0.09375 C 3.101562 0.0898438 2.695312 0.1875 2.25 0.1875 C 1.71875 0.1875 1.28125 0.0234375 0.9375 -0.296875 C 0.601562 -0.617188 0.4375 -1.023438 0.4375 -1.515625 C 0.4375 -2.046875 0.601562 -2.457031 0.9375 -2.75 C 1.269531 -3.039062 1.707031 -3.222656 2.25 -3.296875 Z M 2.984375 -5.890625 Z M 2.984375 -5.890625 "/>
</g>
<g id="glyph-1-9">
<path d="M 4.296875 -5.75 L 5.375 -5.75 C 5.238281 -5.382812 4.9375 -4.546875 4.46875 -3.234375 C 4.113281 -2.242188 3.816406 -1.4375 3.578125 -0.8125 C 3.023438 0.652344 2.632812 1.550781 2.40625 1.875 C 2.175781 2.195312 1.78125 2.359375 1.21875 2.359375 C 1.082031 2.359375 0.976562 2.351562 0.90625 2.34375 C 0.832031 2.332031 0.742188 2.3125 0.640625 2.28125 L 0.640625 1.40625 C 0.804688 1.445312 0.925781 1.472656 1 1.484375 C 1.070312 1.492188 1.140625 1.5 1.203125 1.5 C 1.378906 1.5 1.507812 1.46875 1.59375 1.40625 C 1.675781 1.351562 1.75 1.285156 1.8125 1.203125 C 1.820312 1.171875 1.882812 1.019531 2 0.75 C 2.113281 0.488281 2.191406 0.296875 2.234375 0.171875 L 0.109375 -5.75 L 1.203125 -5.75 L 2.75 -1.0625 Z M 2.75 -5.890625 Z M 2.75 -5.890625 "/>
</g>
<g id="glyph-1-10">
<path d="M 3.25 -8.015625 C 2.6875 -6.921875 2.320312 -6.117188 2.15625 -5.609375 C 1.90625 -4.828125 1.78125 -3.921875 1.78125 -2.890625 C 1.78125 -1.847656 1.925781 -0.898438 2.21875 -0.046875 C 2.394531 0.480469 2.742188 1.25 3.265625 2.25 L 2.625 2.25 C 2.101562 1.425781 1.78125 0.898438 1.65625 0.671875 C 1.53125 0.453125 1.390625 0.148438 1.234375 -0.234375 C 1.035156 -0.765625 0.898438 -1.332031 0.828125 -1.9375 C 0.785156 -2.25 0.765625 -2.546875 0.765625 -2.828125 C 0.765625 -3.890625 0.929688 -4.832031 1.265625 -5.65625 C 1.472656 -6.1875 1.910156 -6.972656 2.578125 -8.015625 Z M 3.25 -8.015625 "/>
</g>
<g id="glyph-1-11">
<path d="M 0.734375 -7.890625 L 1.703125 -7.890625 L 1.703125 0 L 0.734375 0 Z M 0.734375 -7.890625 "/>
</g>
<g id="glyph-1-12">
<path d="M 2.921875 -5.921875 C 3.578125 -5.921875 4.109375 -5.757812 4.515625 -5.4375 C 4.921875 -5.125 5.164062 -4.582031 5.25 -3.8125 L 4.296875 -3.8125 C 4.242188 -4.164062 4.113281 -4.457031 3.90625 -4.6875 C 3.707031 -4.925781 3.378906 -5.046875 2.921875 -5.046875 C 2.304688 -5.046875 1.867188 -4.75 1.609375 -4.15625 C 1.429688 -3.757812 1.34375 -3.273438 1.34375 -2.703125 C 1.34375 -2.128906 1.460938 -1.644531 1.703125 -1.25 C 1.953125 -0.851562 2.335938 -0.65625 2.859375 -0.65625 C 3.265625 -0.65625 3.582031 -0.773438 3.8125 -1.015625 C 4.050781 -1.265625 4.210938 -1.601562 4.296875 -2.03125 L 5.25 -2.03125 C 5.132812 -1.269531 4.863281 -0.710938 4.4375 -0.359375 C 4.007812 -0.00390625 3.457031 0.171875 2.78125 0.171875 C 2.03125 0.171875 1.429688 -0.101562 0.984375 -0.65625 C 0.535156 -1.207031 0.3125 -1.894531 0.3125 -2.71875 C 0.3125 -3.726562 0.554688 -4.515625 1.046875 -5.078125 C 1.535156 -5.640625 2.160156 -5.921875 2.921875 -5.921875 Z M 2.78125 -5.890625 Z M 2.78125 -5.890625 "/>
</g>
<g id="glyph-1-13">
<path d="M 0.90625 -7.359375 L 1.875 -7.359375 L 1.875 -5.75 L 2.796875 -5.75 L 2.796875 -4.96875 L 1.875 -4.96875 L 1.875 -1.203125 C 1.875 -1.003906 1.941406 -0.875 2.078125 -0.8125 C 2.160156 -0.769531 2.285156 -0.75 2.453125 -0.75 C 2.503906 -0.75 2.554688 -0.75 2.609375 -0.75 C 2.660156 -0.75 2.722656 -0.753906 2.796875 -0.765625 L 2.796875 0 C 2.679688 0.03125 2.5625 0.0507812 2.4375 0.0625 C 2.320312 0.0820312 2.195312 0.09375 2.0625 0.09375 C 1.613281 0.09375 1.304688 -0.0195312 1.140625 -0.25 C 0.984375 -0.488281 0.90625 -0.789062 0.90625 -1.15625 L 0.90625 -4.96875 L 0.125 -4.96875 L 0.125 -5.75 L 0.90625 -5.75 Z M 0.90625 -7.359375 "/>
</g>
<g id="glyph-1-14">
<path d="M 0.703125 -5.71875 L 1.6875 -5.71875 L 1.6875 0 L 0.703125 0 Z M 0.703125 -7.890625 L 1.6875 -7.890625 L 1.6875 -6.796875 L 0.703125 -6.796875 Z M 0.703125 -7.890625 "/>
</g>
<g id="glyph-1-15">
<path d="M 0.703125 -5.75 L 1.671875 -5.75 L 1.671875 -4.9375 C 1.898438 -5.21875 2.101562 -5.421875 2.28125 -5.546875 C 2.601562 -5.765625 2.96875 -5.875 3.375 -5.875 C 3.832031 -5.875 4.203125 -5.765625 4.484375 -5.546875 C 4.640625 -5.410156 4.78125 -5.21875 4.90625 -4.96875 C 5.125 -5.28125 5.378906 -5.507812 5.671875 -5.65625 C 5.960938 -5.800781 6.285156 -5.875 6.640625 -5.875 C 7.410156 -5.875 7.9375 -5.597656 8.21875 -5.046875 C 8.375 -4.742188 8.453125 -4.335938 8.453125 -3.828125 L 8.453125 0 L 7.4375 0 L 7.4375 -4 C 7.4375 -4.382812 7.34375 -4.644531 7.15625 -4.78125 C 6.96875 -4.925781 6.734375 -5 6.453125 -5 C 6.078125 -5 5.75 -4.867188 5.46875 -4.609375 C 5.195312 -4.359375 5.0625 -3.9375 5.0625 -3.34375 L 5.0625 0 L 4.078125 0 L 4.078125 -3.75 C 4.078125 -4.144531 4.03125 -4.429688 3.9375 -4.609375 C 3.789062 -4.878906 3.519531 -5.015625 3.125 -5.015625 C 2.757812 -5.015625 2.425781 -4.867188 2.125 -4.578125 C 1.820312 -4.296875 1.671875 -3.785156 1.671875 -3.046875 L 1.671875 0 L 0.703125 0 Z M 0.703125 -5.75 "/>
</g>
<g id="glyph-1-16">
<path d="M 3.109375 -5.875 C 3.515625 -5.875 3.90625 -5.78125 4.28125 -5.59375 C 4.664062 -5.40625 4.960938 -5.15625 5.171875 -4.84375 C 5.359375 -4.5625 5.484375 -4.222656 5.546875 -3.828125 C 5.609375 -3.566406 5.640625 -3.144531 5.640625 -2.5625 L 1.421875 -2.5625 C 1.441406 -1.976562 1.578125 -1.507812 1.828125 -1.15625 C 2.085938 -0.8125 2.488281 -0.640625 3.03125 -0.640625 C 3.539062 -0.640625 3.945312 -0.804688 4.25 -1.140625 C 4.414062 -1.328125 4.535156 -1.550781 4.609375 -1.8125 L 5.5625 -1.8125 C 5.53125 -1.59375 5.441406 -1.351562 5.296875 -1.09375 C 5.160156 -0.832031 5.003906 -0.625 4.828125 -0.46875 C 4.535156 -0.175781 4.175781 0.0195312 3.75 0.125 C 3.507812 0.175781 3.242188 0.203125 2.953125 0.203125 C 2.234375 0.203125 1.625 -0.0546875 1.125 -0.578125 C 0.632812 -1.097656 0.390625 -1.828125 0.390625 -2.765625 C 0.390625 -3.691406 0.640625 -4.441406 1.140625 -5.015625 C 1.640625 -5.585938 2.296875 -5.875 3.109375 -5.875 Z M 4.640625 -3.328125 C 4.609375 -3.753906 4.519531 -4.09375 4.375 -4.34375 C 4.101562 -4.800781 3.660156 -5.03125 3.046875 -5.03125 C 2.597656 -5.03125 2.222656 -4.867188 1.921875 -4.546875 C 1.628906 -4.234375 1.472656 -3.828125 1.453125 -3.328125 Z M 3.015625 -5.890625 Z M 3.015625 -5.890625 "/>
</g>
<g id="glyph-1-17">
<path d="M 0.375 2.25 C 0.945312 1.132812 1.316406 0.320312 1.484375 -0.1875 C 1.734375 -0.957031 1.859375 -1.859375 1.859375 -2.890625 C 1.859375 -3.921875 1.710938 -4.867188 1.421875 -5.734375 C 1.242188 -6.265625 0.890625 -7.023438 0.359375 -8.015625 L 1.015625 -8.015625 C 1.566406 -7.140625 1.898438 -6.597656 2.015625 -6.390625 C 2.128906 -6.179688 2.253906 -5.894531 2.390625 -5.53125 C 2.566406 -5.082031 2.691406 -4.640625 2.765625 -4.203125 C 2.835938 -3.773438 2.875 -3.359375 2.875 -2.953125 C 2.875 -1.890625 2.707031 -0.941406 2.375 -0.109375 C 2.15625 0.417969 1.710938 1.207031 1.046875 2.25 Z M 0.375 2.25 "/>
</g>
<g id="glyph-2-0">
<path d="M 0 -0.359375 L -7.890625 -0.359375 L -7.890625 -6.625 L 0 -6.625 Z M -0.984375 -5.625 L -6.90625 -5.625 L -6.90625 -1.34375 L -0.984375 -1.34375 Z M -0.984375 -5.625 "/>
</g>
<g id="glyph-2-1">
<path d="M -7.890625 -0.84375 L -7.890625 -2.09375 L -1.5 -6.078125 L -7.890625 -6.078125 L -7.890625 -7.09375 L 0 -7.09375 L 0 -5.90625 L -6.390625 -1.859375 L 0 -1.859375 L 0 -0.84375 Z M -7.890625 -3.90625 Z M -7.890625 -3.90625 "/>
</g>
<g id="glyph-2-2">
<path d="M -7.890625 -0.9375 L -7.890625 -6.6875 L -6.921875 -6.6875 L -6.921875 -1.984375 L -4.53125 -1.984375 L -4.53125 -6.34375 L -3.609375 -6.34375 L -3.609375 -1.984375 L -0.9375 -1.984375 L -0.9375 -6.765625 L 0 -6.765625 L 0 -0.9375 Z M -7.890625 -3.859375 Z M -7.890625 -3.859375 "/>
</g>
<g id="glyph-2-3">
<path d="M -7.890625 -6.578125 L -6.953125 -6.578125 L -6.953125 -3.921875 L 0 -3.921875 L 0 -2.84375 L -6.953125 -2.84375 L -6.953125 -0.171875 L -7.890625 -0.171875 Z M -7.890625 -6.578125 "/>
</g>
<g id="glyph-2-4">
</g>
<g id="glyph-2-5">
<path d="M -3.25 -6.09375 L -2.359375 -6.09375 L -2.359375 -0.5 L -3.25 -0.5 Z M -3.25 -6.09375 "/>
</g>
<g id="glyph-2-6">
<path d="M -5.75 -0.703125 L -5.75 -1.625 L -4.9375 -1.625 C -5.269531 -1.894531 -5.507812 -2.179688 -5.65625 -2.484375 C -5.800781 -2.796875 -5.875 -3.132812 -5.875 -3.5 C -5.875 -4.320312 -5.59375 -4.875 -5.03125 -5.15625 C -4.71875 -5.3125 -4.269531 -5.390625 -3.6875 -5.390625 L 0 -5.390625 L 0 -4.421875 L -3.625 -4.421875 C -3.976562 -4.421875 -4.257812 -4.367188 -4.46875 -4.265625 C -4.832031 -4.085938 -5.015625 -3.773438 -5.015625 -3.328125 C -5.015625 -3.097656 -4.988281 -2.910156 -4.9375 -2.765625 C -4.863281 -2.492188 -4.707031 -2.257812 -4.46875 -2.0625 C -4.28125 -1.90625 -4.082031 -1.800781 -3.875 -1.75 C -3.675781 -1.695312 -3.390625 -1.671875 -3.015625 -1.671875 L 0 -1.671875 L 0 -0.703125 Z M -5.890625 -2.984375 Z M -5.890625 -2.984375 "/>
</g>
<g id="glyph-2-7">
<path d="M -0.625 -2.984375 C -0.625 -3.628906 -0.863281 -4.070312 -1.34375 -4.3125 C -1.832031 -4.550781 -2.375 -4.671875 -2.96875 -4.671875 C -3.507812 -4.671875 -3.945312 -4.582031 -4.28125 -4.40625 C -4.8125 -4.132812 -5.078125 -3.664062 -5.078125 -3 C -5.078125 -2.40625 -4.847656 -1.972656 -4.390625 -1.703125 C -3.941406 -1.441406 -3.398438 -1.3125 -2.765625 -1.3125 C -2.148438 -1.3125 -1.640625 -1.441406 -1.234375 -1.703125 C -0.828125 -1.972656 -0.625 -2.398438 -0.625 -2.984375 Z M -5.921875 -3.03125 C -5.921875 -3.769531 -5.671875 -4.394531 -5.171875 -4.90625 C -4.679688 -5.414062 -3.957031 -5.671875 -3 -5.671875 C -2.070312 -5.671875 -1.304688 -5.445312 -0.703125 -5 C -0.0976562 -4.550781 0.203125 -3.851562 0.203125 -2.90625 C 0.203125 -2.113281 -0.0625 -1.484375 -0.59375 -1.015625 C -1.125 -0.546875 -1.84375 -0.3125 -2.75 -0.3125 C -3.71875 -0.3125 -4.488281 -0.554688 -5.0625 -1.046875 C -5.632812 -1.535156 -5.921875 -2.195312 -5.921875 -3.03125 Z M -5.890625 -3 Z M -5.890625 -3 "/>
</g>
<g id="glyph-2-8">
<path d="M -3.5625 -0.453125 L -3.5625 -3.15625 L -2.5625 -3.15625 L -2.5625 -0.453125 Z M -3.5625 -0.453125 "/>
</g>
<g id="glyph-2-9">
<path d="M -8.015625 -3.25 C -6.921875 -2.6875 -6.117188 -2.320312 -5.609375 -2.15625 C -4.828125 -1.90625 -3.921875 -1.78125 -2.890625 -1.78125 C -1.847656 -1.78125 -0.898438 -1.925781 -0.046875 -2.21875 C 0.480469 -2.394531 1.25 -2.742188 2.25 -3.265625 L 2.25 -2.625 C 1.425781 -2.101562 0.898438 -1.78125 0.671875 -1.65625 C 0.453125 -1.53125 0.148438 -1.390625 -0.234375 -1.234375 C -0.765625 -1.035156 -1.332031 -0.898438 -1.9375 -0.828125 C -2.25 -0.785156 -2.546875 -0.765625 -2.828125 -0.765625 C -3.890625 -0.765625 -4.832031 -0.929688 -5.65625 -1.265625 C -6.1875 -1.472656 -6.972656 -1.910156 -8.015625 -2.578125 Z M -8.015625 -3.25 "/>
</g>
<g id="glyph-2-10">
<path d="M -0.65625 -3.140625 C -0.65625 -3.585938 -0.84375 -3.957031 -1.21875 -4.25 C -1.59375 -4.550781 -2.15625 -4.703125 -2.90625 -4.703125 C -3.363281 -4.703125 -3.757812 -4.640625 -4.09375 -4.515625 C -4.726562 -4.265625 -5.046875 -3.804688 -5.046875 -3.140625 C -5.046875 -2.460938 -4.710938 -2.003906 -4.046875 -1.765625 C -3.679688 -1.628906 -3.222656 -1.5625 -2.671875 -1.5625 C -2.234375 -1.5625 -1.859375 -1.628906 -1.546875 -1.765625 C -0.953125 -2.015625 -0.65625 -2.472656 -0.65625 -3.140625 Z M -5.71875 -0.640625 L -5.71875 -1.578125 L -4.96875 -1.578125 C -5.226562 -1.765625 -5.425781 -1.972656 -5.5625 -2.203125 C -5.78125 -2.535156 -5.890625 -2.921875 -5.890625 -3.359375 C -5.890625 -4.003906 -5.640625 -4.554688 -5.140625 -5.015625 C -4.640625 -5.472656 -3.925781 -5.703125 -3 -5.703125 C -1.75 -5.703125 -0.851562 -5.375 -0.3125 -4.71875 C 0.0195312 -4.300781 0.1875 -3.816406 0.1875 -3.265625 C 0.1875 -2.828125 0.0898438 -2.460938 -0.09375 -2.171875 C -0.195312 -2.003906 -0.378906 -1.8125 -0.640625 -1.59375 L 2.296875 -1.59375 L 2.296875 -0.640625 Z M -5.71875 -0.640625 "/>
</g>
<g id="glyph-2-11">
<path d="M 2.25 -0.375 C 1.132812 -0.945312 0.320312 -1.316406 -0.1875 -1.484375 C -0.957031 -1.734375 -1.859375 -1.859375 -2.890625 -1.859375 C -3.921875 -1.859375 -4.867188 -1.710938 -5.734375 -1.421875 C -6.265625 -1.242188 -7.023438 -0.890625 -8.015625 -0.359375 L -8.015625 -1.015625 C -7.140625 -1.566406 -6.597656 -1.898438 -6.390625 -2.015625 C -6.179688 -2.128906 -5.894531 -2.253906 -5.53125 -2.390625 C -5.082031 -2.566406 -4.640625 -2.691406 -4.203125 -2.765625 C -3.773438 -2.835938 -3.359375 -2.875 -2.953125 -2.875 C -1.890625 -2.875 -0.941406 -2.707031 -0.109375 -2.375 C 0.417969 -2.15625 1.207031 -1.710938 2.25 -1.046875 Z M 2.25 -0.375 "/>
</g>
<g id="glyph-3-0">
<path d="M 0.28125 0 L 0.28125 -6.3125 L 5.296875 -6.3125 L 5.296875 0 Z M 4.5 -0.796875 L 4.5 -5.515625 L 1.078125 -5.515625 L 1.078125 -0.796875 Z M 4.5 -0.796875 "/>
</g>
<g id="glyph-3-1">
<path d="M 0.671875 -6.3125 L 1.671875 -6.3125 L 4.859375 -1.203125 L 4.859375 -6.3125 L 5.671875 -6.3125 L 5.671875 0 L 4.71875 0 L 1.484375 -5.109375 L 1.484375 0 L 0.671875 0 Z M 3.125 -6.3125 Z M 3.125 -6.3125 "/>
</g>
<g id="glyph-3-2">
<path d="M 2.390625 -0.5 C 2.898438 -0.5 3.25 -0.691406 3.4375 -1.078125 C 3.632812 -1.460938 3.734375 -1.894531 3.734375 -2.375 C 3.734375 -2.800781 3.664062 -3.148438 3.53125 -3.421875 C 3.3125 -3.847656 2.9375 -4.0625 2.40625 -4.0625 C 1.925781 -4.0625 1.578125 -3.878906 1.359375 -3.515625 C 1.148438 -3.160156 1.046875 -2.726562 1.046875 -2.21875 C 1.046875 -1.726562 1.148438 -1.316406 1.359375 -0.984375 C 1.578125 -0.660156 1.921875 -0.5 2.390625 -0.5 Z M 2.421875 -4.734375 C 3.015625 -4.734375 3.515625 -4.535156 3.921875 -4.140625 C 4.335938 -3.742188 4.546875 -3.160156 4.546875 -2.390625 C 4.546875 -1.648438 4.363281 -1.035156 4 -0.546875 C 3.632812 -0.0664062 3.070312 0.171875 2.3125 0.171875 C 1.6875 0.171875 1.1875 -0.0390625 0.8125 -0.46875 C 0.4375 -0.894531 0.25 -1.472656 0.25 -2.203125 C 0.25 -2.972656 0.445312 -3.585938 0.84375 -4.046875 C 1.238281 -4.503906 1.765625 -4.734375 2.421875 -4.734375 Z M 2.390625 -4.71875 Z M 2.390625 -4.71875 "/>
</g>
<g id="glyph-3-3">
<path d="M 0.5625 -4.59375 L 1.296875 -4.59375 L 1.296875 -3.953125 C 1.515625 -4.210938 1.742188 -4.398438 1.984375 -4.515625 C 2.234375 -4.640625 2.507812 -4.703125 2.8125 -4.703125 C 3.457031 -4.703125 3.894531 -4.472656 4.125 -4.015625 C 4.25 -3.765625 4.3125 -3.410156 4.3125 -2.953125 L 4.3125 0 L 3.53125 0 L 3.53125 -2.90625 C 3.53125 -3.175781 3.488281 -3.398438 3.40625 -3.578125 C 3.269531 -3.859375 3.019531 -4 2.65625 -4 C 2.476562 -4 2.328125 -3.984375 2.203125 -3.953125 C 1.992188 -3.890625 1.8125 -3.765625 1.65625 -3.578125 C 1.519531 -3.421875 1.429688 -3.257812 1.390625 -3.09375 C 1.359375 -2.9375 1.34375 -2.707031 1.34375 -2.40625 L 1.34375 0 L 0.5625 0 Z M 2.390625 -4.71875 Z M 2.390625 -4.71875 "/>
</g>
<g id="glyph-3-4">
<path d="M 0.359375 -2.84375 L 2.515625 -2.84375 L 2.515625 -2.046875 L 0.359375 -2.046875 Z M 0.359375 -2.84375 "/>
</g>
<g id="glyph-3-5">
<path d="M 0.75 -6.3125 L 5.359375 -6.3125 L 5.359375 -5.53125 L 1.578125 -5.53125 L 1.578125 -3.625 L 5.0625 -3.625 L 5.0625 -2.890625 L 1.578125 -2.890625 L 1.578125 -0.75 L 5.421875 -0.75 L 5.421875 0 L 0.75 0 Z M 3.078125 -6.3125 Z M 3.078125 -6.3125 "/>
</g>
<g id="glyph-3-6">
<path d="M 5.265625 -6.3125 L 5.265625 -5.5625 L 3.140625 -5.5625 L 3.140625 0 L 2.265625 0 L 2.265625 -5.5625 L 0.140625 -5.5625 L 0.140625 -6.3125 Z M 5.265625 -6.3125 "/>
</g>
<g id="glyph-3-7">
</g>
<g id="glyph-3-8">
<path d="M 0.5625 -6.328125 L 1.34375 -6.328125 L 1.34375 -3.984375 C 1.519531 -4.210938 1.679688 -4.375 1.828125 -4.46875 C 2.078125 -4.632812 2.390625 -4.71875 2.765625 -4.71875 C 3.429688 -4.71875 3.882812 -4.484375 4.125 -4.015625 C 4.25 -3.753906 4.3125 -3.398438 4.3125 -2.953125 L 4.3125 0 L 3.515625 0 L 3.515625 -2.90625 C 3.515625 -3.238281 3.472656 -3.484375 3.390625 -3.640625 C 3.253906 -3.890625 2.992188 -4.015625 2.609375 -4.015625 C 2.285156 -4.015625 1.992188 -3.90625 1.734375 -3.6875 C 1.472656 -3.46875 1.34375 -3.050781 1.34375 -2.4375 L 1.34375 0 L 0.5625 0 Z M 0.5625 -6.328125 "/>
</g>
<g id="glyph-3-9">
<path d="M 0.5625 -4.578125 L 1.359375 -4.578125 L 1.359375 0 L 0.5625 0 Z M 0.5625 -6.3125 L 1.359375 -6.3125 L 1.359375 -5.4375 L 0.5625 -5.4375 Z M 0.5625 -6.3125 "/>
</g>
<g id="glyph-3-10">
<path d="M 2.1875 -4.6875 C 2.550781 -4.6875 2.867188 -4.597656 3.140625 -4.421875 C 3.285156 -4.316406 3.429688 -4.171875 3.578125 -3.984375 L 3.578125 -4.5625 L 4.296875 -4.5625 L 4.296875 -0.375 C 4.296875 0.207031 4.207031 0.671875 4.03125 1.015625 C 3.71875 1.640625 3.113281 1.953125 2.21875 1.953125 C 1.726562 1.953125 1.3125 1.835938 0.96875 1.609375 C 0.632812 1.390625 0.445312 1.046875 0.40625 0.578125 L 1.1875 0.578125 C 1.226562 0.773438 1.300781 0.929688 1.40625 1.046875 C 1.582031 1.222656 1.859375 1.3125 2.234375 1.3125 C 2.828125 1.3125 3.21875 1.097656 3.40625 0.671875 C 3.507812 0.429688 3.554688 -0.00390625 3.546875 -0.640625 C 3.390625 -0.398438 3.203125 -0.222656 2.984375 -0.109375 C 2.773438 0.00390625 2.488281 0.0625 2.125 0.0625 C 1.632812 0.0625 1.203125 -0.113281 0.828125 -0.46875 C 0.453125 -0.820312 0.265625 -1.410156 0.265625 -2.234375 C 0.265625 -3.003906 0.453125 -3.601562 0.828125 -4.03125 C 1.203125 -4.46875 1.65625 -4.6875 2.1875 -4.6875 Z M 3.578125 -2.3125 C 3.578125 -2.882812 3.457031 -3.304688 3.21875 -3.578125 C 2.988281 -3.859375 2.691406 -4 2.328125 -4 C 1.785156 -4 1.414062 -3.742188 1.21875 -3.234375 C 1.113281 -2.960938 1.0625 -2.609375 1.0625 -2.171875 C 1.0625 -1.648438 1.164062 -1.253906 1.375 -0.984375 C 1.582031 -0.710938 1.863281 -0.578125 2.21875 -0.578125 C 2.769531 -0.578125 3.160156 -0.828125 3.390625 -1.328125 C 3.515625 -1.609375 3.578125 -1.9375 3.578125 -2.3125 Z M 2.28125 -4.71875 Z M 2.28125 -4.71875 "/>
</g>
<g id="glyph-3-11">
<path d="M 2.484375 -4.703125 C 2.804688 -4.703125 3.117188 -4.625 3.421875 -4.46875 C 3.734375 -4.320312 3.96875 -4.125 4.125 -3.875 C 4.28125 -3.644531 4.382812 -3.375 4.4375 -3.0625 C 4.488281 -2.851562 4.515625 -2.515625 4.515625 -2.046875 L 1.140625 -2.046875 C 1.148438 -1.585938 1.257812 -1.210938 1.46875 -0.921875 C 1.675781 -0.640625 1.992188 -0.5 2.421875 -0.5 C 2.828125 -0.5 3.148438 -0.632812 3.390625 -0.90625 C 3.523438 -1.0625 3.625 -1.238281 3.6875 -1.4375 L 4.453125 -1.4375 C 4.429688 -1.269531 4.363281 -1.082031 4.25 -0.875 C 4.132812 -0.664062 4.003906 -0.5 3.859375 -0.375 C 3.628906 -0.144531 3.34375 0.0078125 3 0.09375 C 2.8125 0.132812 2.597656 0.15625 2.359375 0.15625 C 1.785156 0.15625 1.300781 -0.0507812 0.90625 -0.46875 C 0.507812 -0.882812 0.3125 -1.46875 0.3125 -2.21875 C 0.3125 -2.945312 0.507812 -3.539062 0.90625 -4 C 1.3125 -4.46875 1.835938 -4.703125 2.484375 -4.703125 Z M 3.71875 -2.671875 C 3.6875 -3.003906 3.613281 -3.269531 3.5 -3.46875 C 3.28125 -3.84375 2.925781 -4.03125 2.4375 -4.03125 C 2.082031 -4.03125 1.785156 -3.898438 1.546875 -3.640625 C 1.304688 -3.390625 1.175781 -3.066406 1.15625 -2.671875 Z M 2.40625 -4.71875 Z M 2.40625 -4.71875 "/>
</g>
<g id="glyph-3-12">
<path d="M 0.59375 -4.59375 L 1.328125 -4.59375 L 1.328125 -3.8125 C 1.378906 -3.957031 1.523438 -4.140625 1.765625 -4.359375 C 2.003906 -4.585938 2.273438 -4.703125 2.578125 -4.703125 C 2.585938 -4.703125 2.609375 -4.695312 2.640625 -4.6875 C 2.679688 -4.6875 2.742188 -4.6875 2.828125 -4.6875 L 2.828125 -3.859375 C 2.773438 -3.867188 2.726562 -3.875 2.6875 -3.875 C 2.65625 -3.882812 2.617188 -3.890625 2.578125 -3.890625 C 2.179688 -3.890625 1.878906 -3.765625 1.671875 -3.515625 C 1.460938 -3.265625 1.359375 -2.972656 1.359375 -2.640625 L 1.359375 0 L 0.59375 0 Z M 0.59375 -4.59375 "/>
</g>
</g>
<clipPath id="clip-0">
<path clip-rule="nonzero" d="M 57.152344 5.480469 L 426.523438 5.480469 L 426.523438 191.652344 L 57.152344 191.652344 Z M 57.152344 5.480469 "/>
</clipPath>
<clipPath id="clip-1">
<path clip-rule="nonzero" d="M 57.152344 161 L 426.523438 161 L 426.523438 163 L 57.152344 163 Z M 57.152344 161 "/>
</clipPath>
<clipPath id="clip-2">
<path clip-rule="nonzero" d="M 57.152344 118 L 426.523438 118 L 426.523438 120 L 57.152344 120 Z M 57.152344 118 "/>
</clipPath>
<clipPath id="clip-3">
<path clip-rule="nonzero" d="M 57.152344 75 L 426.523438 75 L 426.523438 77 L 57.152344 77 Z M 57.152344 75 "/>
</clipPath>
<clipPath id="clip-4">
<path clip-rule="nonzero" d="M 57.152344 33 L 426.523438 33 L 426.523438 35 L 57.152344 35 Z M 57.152344 33 "/>
</clipPath>
<clipPath id="clip-5">
<path clip-rule="nonzero" d="M 79 5.480469 L 81 5.480469 L 81 191.652344 L 79 191.652344 Z M 79 5.480469 "/>
</clipPath>
<clipPath id="clip-6">
<path clip-rule="nonzero" d="M 121 5.480469 L 123 5.480469 L 123 191.652344 L 121 191.652344 Z M 121 5.480469 "/>
</clipPath>
<clipPath id="clip-7">
<path clip-rule="nonzero" d="M 163 5.480469 L 165 5.480469 L 165 191.652344 L 163 191.652344 Z M 163 5.480469 "/>
</clipPath>
<clipPath id="clip-8">
<path clip-rule="nonzero" d="M 206 5.480469 L 208 5.480469 L 208 191.652344 L 206 191.652344 Z M 206 5.480469 "/>
</clipPath>
<clipPath id="clip-9">
<path clip-rule="nonzero" d="M 248 5.480469 L 250 5.480469 L 250 191.652344 L 248 191.652344 Z M 248 5.480469 "/>
</clipPath>
<clipPath id="clip-10">
<path clip-rule="nonzero" d="M 290 5.480469 L 292 5.480469 L 292 191.652344 L 290 191.652344 Z M 290 5.480469 "/>
</clipPath>
<clipPath id="clip-11">
<path clip-rule="nonzero" d="M 332 5.480469 L 334 5.480469 L 334 191.652344 L 332 191.652344 Z M 332 5.480469 "/>
</clipPath>
<clipPath id="clip-12">
<path clip-rule="nonzero" d="M 375 5.480469 L 377 5.480469 L 377 191.652344 L 375 191.652344 Z M 375 5.480469 "/>
</clipPath>
<clipPath id="clip-13">
<path clip-rule="nonzero" d="M 57.152344 75 L 426.523438 75 L 426.523438 77 L 57.152344 77 Z M 57.152344 75 "/>
</clipPath>
<clipPath id="clip-14">
<path clip-rule="nonzero" d="M 57.152344 5.480469 L 426.523438 5.480469 L 426.523438 191.652344 L 57.152344 191.652344 Z M 57.152344 5.480469 "/>
</clipPath>
</defs>
<rect x="-43.2" y="-26.6" width="518.4" height="319.2" fill="rgb(100%, 100%, 100%)" fill-opacity="1"/>
<rect x="-43.2" y="-26.6" width="518.4" height="319.2" fill="rgb(100%, 100%, 100%)" fill-opacity="1"/>
<g clip-path="url(#clip-0)">
<path fill-rule="nonzero" fill="rgb(100%, 100%, 100%)" fill-opacity="1" d="M 57.152344 191.652344 L 426.523438 191.652344 L 426.523438 5.480469 L 57.152344 5.480469 Z M 57.152344 191.652344 "/>
</g>
<g clip-path="url(#clip-1)">
<path fill="none" stroke-width="1.066978" stroke-linecap="butt" stroke-linejoin="round" stroke="rgb(92.156863%, 92.156863%, 92.156863%)" stroke-opacity="1" stroke-miterlimit="10" d="M 57.152344 161.726562 L 426.519531 161.726562 "/>
</g>
<g clip-path="url(#clip-2)">
<path fill="none" stroke-width="1.066978" stroke-linecap="butt" stroke-linejoin="round" stroke="rgb(92.156863%, 92.156863%, 92.156863%)" stroke-opacity="1" stroke-miterlimit="10" d="M 57.152344 119.007812 L 426.519531 119.007812 "/>
</g>
<g clip-path="url(#clip-3)">
<path fill="none" stroke-width="1.066978" stroke-linecap="butt" stroke-linejoin="round" stroke="rgb(92.156863%, 92.156863%, 92.156863%)" stroke-opacity="1" stroke-miterlimit="10" d="M 57.152344 76.289062 L 426.519531 76.289062 "/>
</g>
<g clip-path="url(#clip-4)">
<path fill="none" stroke-width="1.066978" stroke-linecap="butt" stroke-linejoin="round" stroke="rgb(92.156863%, 92.156863%, 92.156863%)" stroke-opacity="1" stroke-miterlimit="10" d="M 57.152344 33.570312 L 426.519531 33.570312 "/>
</g>
<g clip-path="url(#clip-5)">
<path fill="none" stroke-width="1.066978" stroke-linecap="butt" stroke-linejoin="round" stroke="rgb(92.156863%, 92.156863%, 92.156863%)" stroke-opacity="1" stroke-miterlimit="10" d="M 79.925781 191.652344 L 79.925781 5.480469 "/>
</g>
<g clip-path="url(#clip-6)">
<path fill="none" stroke-width="1.066978" stroke-linecap="butt" stroke-linejoin="round" stroke="rgb(92.156863%, 92.156863%, 92.156863%)" stroke-opacity="1" stroke-miterlimit="10" d="M 122.160156 191.652344 L 122.160156 5.480469 "/>
</g>
<g clip-path="url(#clip-7)">
<path fill="none" stroke-width="1.066978" stroke-linecap="butt" stroke-linejoin="round" stroke="rgb(92.156863%, 92.156863%, 92.156863%)" stroke-opacity="1" stroke-miterlimit="10" d="M 164.398438 191.652344 L 164.398438 5.480469 "/>
</g>
<g clip-path="url(#clip-8)">
<path fill="none" stroke-width="1.066978" stroke-linecap="butt" stroke-linejoin="round" stroke="rgb(92.156863%, 92.156863%, 92.156863%)" stroke-opacity="1" stroke-miterlimit="10" d="M 206.636719 191.652344 L 206.636719 5.480469 "/>
</g>
<g clip-path="url(#clip-9)">
<path fill="none" stroke-width="1.066978" stroke-linecap="butt" stroke-linejoin="round" stroke="rgb(92.156863%, 92.156863%, 92.156863%)" stroke-opacity="1" stroke-miterlimit="10" d="M 248.875 191.652344 L 248.875 5.480469 "/>
</g>
<g clip-path="url(#clip-10)">
<path fill="none" stroke-width="1.066978" stroke-linecap="butt" stroke-linejoin="round" stroke="rgb(92.156863%, 92.156863%, 92.156863%)" stroke-opacity="1" stroke-miterlimit="10" d="M 291.113281 191.652344 L 291.113281 5.480469 "/>
</g>
<g clip-path="url(#clip-11)">
<path fill="none" stroke-width="1.066978" stroke-linecap="butt" stroke-linejoin="round" stroke="rgb(92.156863%, 92.156863%, 92.156863%)" stroke-opacity="1" stroke-miterlimit="10" d="M 333.351562 191.652344 L 333.351562 5.480469 "/>
</g>
<g clip-path="url(#clip-12)">
<path fill="none" stroke-width="1.066978" stroke-linecap="butt" stroke-linejoin="round" stroke="rgb(92.156863%, 92.156863%, 92.156863%)" stroke-opacity="1" stroke-miterlimit="10" d="M 375.589844 191.652344 L 375.589844 5.480469 "/>
</g>
<path fill-rule="nonzero" fill="rgb(89.411765%, 10.196078%, 10.980392%)" fill-opacity="1" d="M 73.941406 76.289062 L 85.910156 76.289062 L 85.910156 50.800781 L 73.941406 50.800781 Z M 73.941406 76.289062 "/>
<path fill-rule="nonzero" fill="rgb(89.411765%, 10.196078%, 10.980392%)" fill-opacity="1" d="M 88.019531 76.289062 L 99.988281 76.289062 L 99.988281 13.941406 L 88.019531 13.941406 Z M 88.019531 76.289062 "/>
<path fill-rule="nonzero" fill="rgb(89.411765%, 10.196078%, 10.980392%)" fill-opacity="1" d="M 102.097656 76.289062 L 114.066406 76.289062 L 114.066406 14.457031 L 102.097656 14.457031 Z M 102.097656 76.289062 "/>
<path fill-rule="nonzero" fill="rgb(89.411765%, 10.196078%, 10.980392%)" fill-opacity="1" d="M 116.179688 76.289062 L 128.148438 76.289062 L 128.148438 30.464844 L 116.179688 30.464844 Z M 116.179688 76.289062 "/>
<path fill-rule="nonzero" fill="rgb(89.411765%, 10.196078%, 10.980392%)" fill-opacity="1" d="M 130.257812 76.289062 L 142.226562 76.289062 L 142.226562 21.953125 L 130.257812 21.953125 Z M 130.257812 76.289062 "/>
<path fill-rule="nonzero" fill="rgb(89.411765%, 10.196078%, 10.980392%)" fill-opacity="1" d="M 144.335938 76.289062 L 156.304688 76.289062 L 156.304688 16.871094 L 144.335938 16.871094 Z M 144.335938 76.289062 "/>
<path fill-rule="nonzero" fill="rgb(89.411765%, 10.196078%, 10.980392%)" fill-opacity="1" d="M 158.414062 76.289062 L 170.382812 76.289062 L 170.382812 23.539062 L 158.414062 23.539062 Z M 158.414062 76.289062 "/>
<path fill-rule="nonzero" fill="rgb(89.411765%, 10.196078%, 10.980392%)" fill-opacity="1" d="M 172.496094 76.289062 L 184.464844 76.289062 L 184.464844 29.523438 L 172.496094 29.523438 Z M 172.496094 76.289062 "/>
<path fill-rule="nonzero" fill="rgb(89.411765%, 10.196078%, 10.980392%)" fill-opacity="1" d="M 186.574219 76.289062 L 198.542969 76.289062 L 198.542969 48.441406 L 186.574219 48.441406 Z M 186.574219 76.289062 "/>
<path fill-rule="nonzero" fill="rgb(89.411765%, 10.196078%, 10.980392%)" fill-opacity="1" d="M 200.652344 76.289062 L 212.621094 76.289062 L 212.621094 62.457031 L 200.652344 62.457031 Z M 200.652344 76.289062 "/>
<path fill-rule="nonzero" fill="rgb(89.411765%, 10.196078%, 10.980392%)" fill-opacity="1" d="M 214.734375 76.289062 L 226.703125 76.289062 L 226.703125 65.242188 L 214.734375 65.242188 Z M 214.734375 76.289062 "/>
<path fill-rule="nonzero" fill="rgb(21.568627%, 49.411765%, 72.156863%)" fill-opacity="1" d="M 228.8125 107.003906 L 240.78125 107.003906 L 240.78125 76.289062 L 228.8125 76.289062 Z M 228.8125 107.003906 "/>
<path fill-rule="nonzero" fill="rgb(21.568627%, 49.411765%, 72.156863%)" fill-opacity="1" d="M 242.890625 112.1875 L 254.859375 112.1875 L 254.859375 76.289062 L 242.890625 76.289062 Z M 242.890625 112.1875 "/>
<path fill-rule="nonzero" fill="rgb(89.411765%, 10.196078%, 10.980392%)" fill-opacity="1" d="M 256.972656 76.289062 L 268.941406 76.289062 L 268.941406 70.261719 L 256.972656 70.261719 Z M 256.972656 76.289062 "/>
<path fill-rule="nonzero" fill="rgb(89.411765%, 10.196078%, 10.980392%)" fill-opacity="1" d="M 271.050781 76.289062 L 283.019531 76.289062 L 283.019531 71.917969 L 271.050781 71.917969 Z M 271.050781 76.289062 "/>
<path fill-rule="nonzero" fill="rgb(21.568627%, 49.411765%, 72.156863%)" fill-opacity="1" d="M 285.128906 86.496094 L 297.097656 86.496094 L 297.097656 76.289062 L 285.128906 76.289062 Z M 285.128906 86.496094 "/>
<path fill-rule="nonzero" fill="rgb(21.568627%, 49.411765%, 72.156863%)" fill-opacity="1" d="M 299.207031 98.019531 L 311.175781 98.019531 L 311.175781 76.289062 L 299.207031 76.289062 Z M 299.207031 98.019531 "/>
<path fill-rule="nonzero" fill="rgb(21.568627%, 49.411765%, 72.156863%)" fill-opacity="1" d="M 313.289062 111.632812 L 325.257812 111.632812 L 325.257812 76.289062 L 313.289062 76.289062 Z M 313.289062 111.632812 "/>
<path fill-rule="nonzero" fill="rgb(21.568627%, 49.411765%, 72.156863%)" fill-opacity="1" d="M 327.367188 100.90625 L 339.335938 100.90625 L 339.335938 76.289062 L 327.367188 76.289062 Z M 327.367188 100.90625 "/>
<path fill-rule="nonzero" fill="rgb(21.568627%, 49.411765%, 72.156863%)" fill-opacity="1" d="M 341.445312 93.59375 L 353.414062 93.59375 L 353.414062 76.289062 L 341.445312 76.289062 Z M 341.445312 93.59375 "/>
<path fill-rule="nonzero" fill="rgb(21.568627%, 49.411765%, 72.156863%)" fill-opacity="1" d="M 355.527344 108.324219 L 367.496094 108.324219 L 367.496094 76.289062 L 355.527344 76.289062 Z M 355.527344 108.324219 "/>
<path fill-rule="nonzero" fill="rgb(21.568627%, 49.411765%, 72.156863%)" fill-opacity="1" d="M 369.605469 168.078125 L 381.574219 168.078125 L 381.574219 76.289062 L 369.605469 76.289062 Z M 369.605469 168.078125 "/>
<path fill-rule="nonzero" fill="rgb(21.568627%, 49.411765%, 72.156863%)" fill-opacity="1" d="M 383.683594 183.1875 L 395.652344 183.1875 L 395.652344 76.289062 L 383.683594 76.289062 Z M 383.683594 183.1875 "/>
<path fill-rule="nonzero" fill="rgb(21.568627%, 49.411765%, 72.156863%)" fill-opacity="1" d="M 397.761719 141.640625 L 409.730469 141.640625 L 409.730469 76.289062 L 397.761719 76.289062 Z M 397.761719 141.640625 "/>
<g clip-path="url(#clip-13)">
<path fill="none" stroke-width="0.853583" stroke-linecap="butt" stroke-linejoin="round" stroke="rgb(30.196078%, 30.196078%, 30.196078%)" stroke-opacity="1" stroke-miterlimit="10" d="M 57.152344 76.289062 L 426.519531 76.289062 "/>
</g>
<g clip-path="url(#clip-14)">
<path fill="none" stroke-width="2.133957" stroke-linecap="round" stroke-linejoin="round" stroke="rgb(0%, 0%, 0%)" stroke-opacity="1" stroke-miterlimit="10" d="M 57.152344 191.652344 L 426.523438 191.652344 L 426.523438 5.480469 L 57.152344 5.480469 Z M 57.152344 191.652344 "/>
</g>
<g fill="rgb(0%, 0%, 0%)" fill-opacity="1">
<use xlink:href="#glyph-0-1" x="28.21875" y="165.426758"/>
<use xlink:href="#glyph-0-2" x="31.21875" y="165.426758"/>
<use xlink:href="#glyph-0-3" x="37.21875" y="165.426758"/>
<use xlink:href="#glyph-0-4" x="40.21875" y="165.426758"/>
<use xlink:href="#glyph-0-4" x="46.21875" y="165.426758"/>
</g>
<g fill="rgb(0%, 0%, 0%)" fill-opacity="1">
<use xlink:href="#glyph-0-1" x="19.21875" y="122.708008"/>
<use xlink:href="#glyph-0-5" x="22.21875" y="122.708008"/>
<use xlink:href="#glyph-0-6" x="28.21875" y="122.708008"/>
<use xlink:href="#glyph-0-7" x="31.21875" y="122.708008"/>
<use xlink:href="#glyph-0-3" x="37.21875" y="122.708008"/>
<use xlink:href="#glyph-0-4" x="40.21875" y="122.708008"/>
<use xlink:href="#glyph-0-4" x="46.21875" y="122.708008"/>
</g>
<g fill="rgb(0%, 0%, 0%)" fill-opacity="1">
<use xlink:href="#glyph-0-5" x="31.21875" y="79.989258"/>
<use xlink:href="#glyph-0-3" x="37.21875" y="79.989258"/>
<use xlink:href="#glyph-0-4" x="40.21875" y="79.989258"/>
<use xlink:href="#glyph-0-4" x="46.21875" y="79.989258"/>
</g>
<g fill="rgb(0%, 0%, 0%)" fill-opacity="1">
<use xlink:href="#glyph-0-5" x="22.21875" y="37.270508"/>
<use xlink:href="#glyph-0-6" x="28.21875" y="37.270508"/>
<use xlink:href="#glyph-0-7" x="31.21875" y="37.270508"/>
<use xlink:href="#glyph-0-3" x="37.21875" y="37.270508"/>
<use xlink:href="#glyph-0-4" x="40.21875" y="37.270508"/>
<use xlink:href="#glyph-0-4" x="46.21875" y="37.270508"/>
</g>
<g fill="rgb(0%, 0%, 0%)" fill-opacity="1">
<use xlink:href="#glyph-0-2" x="66.925781" y="204.282227"/>
<use xlink:href="#glyph-0-8" x="72.925781" y="204.282227"/>
<use xlink:href="#glyph-0-9" x="78.925781" y="204.282227"/>
<use xlink:href="#glyph-0-10" x="84.925781" y="204.282227"/>
</g>
<g fill="rgb(0%, 0%, 0%)" fill-opacity="1">
<use xlink:href="#glyph-0-11" x="112.160156" y="204.282227"/>
<use xlink:href="#glyph-0-9" x="118.160156" y="204.282227"/>
<use xlink:href="#glyph-0-10" x="124.160156" y="204.282227"/>
</g>
<g fill="rgb(0%, 0%, 0%)" fill-opacity="1">
<use xlink:href="#glyph-0-12" x="154.398438" y="204.282227"/>
<use xlink:href="#glyph-0-9" x="160.398438" y="204.282227"/>
<use xlink:href="#glyph-0-10" x="166.398438" y="204.282227"/>
</g>
<g fill="rgb(0%, 0%, 0%)" fill-opacity="1">
<use xlink:href="#glyph-0-13" x="196.636719" y="204.282227"/>
<use xlink:href="#glyph-0-9" x="202.636719" y="204.282227"/>
<use xlink:href="#glyph-0-10" x="208.636719" y="204.282227"/>
</g>
<g fill="rgb(0%, 0%, 0%)" fill-opacity="1">
<use xlink:href="#glyph-0-2" x="235.875" y="204.282227"/>
<use xlink:href="#glyph-0-8" x="241.875" y="204.282227"/>
<use xlink:href="#glyph-0-4" x="247.875" y="204.282227"/>
<use xlink:href="#glyph-0-10" x="253.875" y="204.282227"/>
</g>
<g fill="rgb(0%, 0%, 0%)" fill-opacity="1">
<use xlink:href="#glyph-0-11" x="281.113281" y="204.282227"/>
<use xlink:href="#glyph-0-4" x="287.113281" y="204.282227"/>
<use xlink:href="#glyph-0-10" x="293.113281" y="204.282227"/>
</g>
<g fill="rgb(0%, 0%, 0%)" fill-opacity="1">
<use xlink:href="#glyph-0-12" x="323.351562" y="204.282227"/>
<use xlink:href="#glyph-0-4" x="329.351562" y="204.282227"/>
<use xlink:href="#glyph-0-10" x="335.351562" y="204.282227"/>
</g>
<g fill="rgb(0%, 0%, 0%)" fill-opacity="1">
<use xlink:href="#glyph-0-13" x="365.589844" y="204.282227"/>
<use xlink:href="#glyph-0-4" x="371.589844" y="204.282227"/>
<use xlink:href="#glyph-0-10" x="377.589844" y="204.282227"/>
</g>
<g fill="rgb(0%, 0%, 0%)" fill-opacity="1">
<use xlink:href="#glyph-1-1" x="185.335938" y="217.794922"/>
<use xlink:href="#glyph-1-2" x="193.335938" y="217.794922"/>
<use xlink:href="#glyph-1-3" x="199.335938" y="217.794922"/>
<use xlink:href="#glyph-1-4" x="205.335938" y="217.794922"/>
<use xlink:href="#glyph-1-5" x="209.335938" y="217.794922"/>
<use xlink:href="#glyph-1-2" x="212.335938" y="217.794922"/>
<use xlink:href="#glyph-1-6" x="218.335938" y="217.794922"/>
<use xlink:href="#glyph-1-5" x="221.335938" y="217.794922"/>
<use xlink:href="#glyph-1-7" x="224.335938" y="217.794922"/>
<use xlink:href="#glyph-1-8" x="230.335938" y="217.794922"/>
<use xlink:href="#glyph-1-9" x="236.335938" y="217.794922"/>
<use xlink:href="#glyph-1-5" x="242.335938" y="217.794922"/>
<use xlink:href="#glyph-1-10" x="245.335938" y="217.794922"/>
<use xlink:href="#glyph-1-11" x="249.335938" y="217.794922"/>
<use xlink:href="#glyph-1-2" x="251.335938" y="217.794922"/>
<use xlink:href="#glyph-1-12" x="257.335938" y="217.794922"/>
<use xlink:href="#glyph-1-8" x="263.335938" y="217.794922"/>
<use xlink:href="#glyph-1-11" x="269.335938" y="217.794922"/>
<use xlink:href="#glyph-1-5" x="271.335938" y="217.794922"/>
<use xlink:href="#glyph-1-13" x="274.335938" y="217.794922"/>
<use xlink:href="#glyph-1-14" x="277.335938" y="217.794922"/>
<use xlink:href="#glyph-1-15" x="279.335938" y="217.794922"/>
<use xlink:href="#glyph-1-16" x="288.335938" y="217.794922"/>
<use xlink:href="#glyph-1-17" x="294.335938" y="217.794922"/>
</g>
<g fill="rgb(0%, 0%, 0%)" fill-opacity="1">
<use xlink:href="#glyph-2-1" x="12.951172" y="156.066406"/>
<use xlink:href="#glyph-2-2" x="12.951172" y="148.066406"/>
<use xlink:href="#glyph-2-2" x="12.951172" y="141.066406"/>
<use xlink:href="#glyph-2-3" x="12.951172" y="134.066406"/>
<use xlink:href="#glyph-2-4" x="12.951172" y="127.066406"/>
<use xlink:href="#glyph-2-5" x="12.951172" y="124.066406"/>
<use xlink:href="#glyph-2-4" x="12.951172" y="118.066406"/>
<use xlink:href="#glyph-2-6" x="12.951172" y="115.066406"/>
<use xlink:href="#glyph-2-7" x="12.951172" y="109.066406"/>
<use xlink:href="#glyph-2-6" x="12.951172" y="103.066406"/>
<use xlink:href="#glyph-2-8" x="12.951172" y="97.066406"/>
<use xlink:href="#glyph-2-1" x="12.951172" y="93.066406"/>
<use xlink:href="#glyph-2-2" x="12.951172" y="85.066406"/>
<use xlink:href="#glyph-2-2" x="12.951172" y="78.066406"/>
<use xlink:href="#glyph-2-3" x="12.951172" y="71.066406"/>
<use xlink:href="#glyph-2-4" x="12.951172" y="64.066406"/>
<use xlink:href="#glyph-2-9" x="12.951172" y="61.066406"/>
<use xlink:href="#glyph-2-10" x="12.951172" y="57.066406"/>
<use xlink:href="#glyph-2-10" x="12.951172" y="51.066406"/>
<use xlink:href="#glyph-2-11" x="12.951172" y="45.066406"/>
</g>
<path fill-rule="nonzero" fill="rgb(21.568627%, 49.411765%, 72.156863%)" fill-opacity="1" d="M 157.546875 254.332031 L 173.410156 254.332031 L 173.410156 238.46875 L 157.546875 238.46875 Z M 157.546875 254.332031 "/>
<path fill-rule="nonzero" fill="rgb(89.411765%, 10.196078%, 10.980392%)" fill-opacity="1" d="M 254.785156 254.332031 L 270.648438 254.332031 L 270.648438 238.46875 L 254.785156 238.46875 Z M 254.785156 254.332031 "/>
<g fill="rgb(0%, 0%, 0%)" fill-opacity="1">
<use xlink:href="#glyph-3-1" x="179.597656" y="249.678711"/>
<use xlink:href="#glyph-3-2" x="185.597656" y="249.678711"/>
<use xlink:href="#glyph-3-3" x="190.597656" y="249.678711"/>
<use xlink:href="#glyph-3-4" x="195.597656" y="249.678711"/>
<use xlink:href="#glyph-3-1" x="198.597656" y="249.678711"/>
<use xlink:href="#glyph-3-5" x="204.597656" y="249.678711"/>
<use xlink:href="#glyph-3-5" x="210.597656" y="249.678711"/>
<use xlink:href="#glyph-3-6" x="216.597656" y="249.678711"/>
<use xlink:href="#glyph-3-7" x="221.597656" y="249.678711"/>
<use xlink:href="#glyph-3-8" x="223.597656" y="249.678711"/>
<use xlink:href="#glyph-3-9" x="228.597656" y="249.678711"/>
<use xlink:href="#glyph-3-10" x="230.597656" y="249.678711"/>
<use xlink:href="#glyph-3-8" x="235.597656" y="249.678711"/>
<use xlink:href="#glyph-3-11" x="240.597656" y="249.678711"/>
<use xlink:href="#glyph-3-12" x="245.597656" y="249.678711"/>
</g>
<g fill="rgb(0%, 0%, 0%)" fill-opacity="1">
<use xlink:href="#glyph-3-1" x="276.835938" y="249.678711"/>
<use xlink:href="#glyph-3-5" x="282.835938" y="249.678711"/>
<use xlink:href="#glyph-3-5" x="288.835938" y="249.678711"/>
<use xlink:href="#glyph-3-6" x="294.835938" y="249.678711"/>
<use xlink:href="#glyph-3-7" x="299.835938" y="249.678711"/>
<use xlink:href="#glyph-3-8" x="301.835938" y="249.678711"/>
<use xlink:href="#glyph-3-9" x="306.835938" y="249.678711"/>
<use xlink:href="#glyph-3-10" x="308.835938" y="249.678711"/>
<use xlink:href="#glyph-3-8" x="313.835938" y="249.678711"/>
<use xlink:href="#glyph-3-11" x="318.835938" y="249.678711"/>
<use xlink:href="#glyph-3-12" x="323.835938" y="249.678711"/>
</g>
</svg>
